{"asset":{"version":"2.0","generator":"Blockbench 4.7.4 glTF exporter"},"scenes":[{"nodes":[2],"name":"blockbench_export"}],"scene":0,"nodes":[{"name":"Outer","mesh":0},{"name":"cylinder","mesh":1},{"children":[0,1]}],"bufferViews":[{"buffer":0,"byteOffset":0,"byteLength":8736,"target":34962,"byteStride":12},{"buffer":0,"byteOffset":8736,"byteLength":8736,"target":34962,"byteStride":12},{"buffer":0,"byteOffset":17472,"byteLength":5824,"target":34962,"byteStride":8},{"buffer":0,"byteOffset":23296,"byteLength":2136,"target":34963},{"buffer":0,"byteOffset":25432,"byteLength":2592,"target":34962,"byteStride":12},{"buffer":0,"byteOffset":28024,"byteLength":2592,"target":34962,"byteStride":12},{"buffer":0,"byteOffset":30616,"byteLength":1728,"target":34962,"byteStride":8},{"buffer":0,"byteOffset":32344,"byteLength":576,"target":34963}],"buffers":[{"byteLength":32920,"uri":"data:application/octet-stream;base64,"}],"accessors":[{"bufferView":0,"componentType":5126,"count":728,"max":[0.2109375,0.640625,0.1875],"min":[-0.2109375,0,-0.1875],"type":"VEC3"},{"bufferView":1,"componentType":5126,"count":728,"max":[1,1,1],"min":[-1,-1,-1],"type":"VEC3"},{"bufferView":2,"componentType":5126,"count":728,"max":[0.640625,0.6562511324882507],"min":[0,0],"type":"VEC2"},{"bufferView":3,"componentType":5123,"count":1068,"max":[727],"min":[0],"type":"SCALAR"},{"bufferView":4,"componentType":5126,"count":216,"max":[0.125,0.421875,0.125],"min":[-0.125,0.0625,-0.125],"type":"VEC3"},{"bufferView":5,"componentType":5126,"count":216,"max":[1,1,1],"min":[-1,-1,-1],"type":"VEC3"},{"bufferView":6,"componentType":5126,"count":216,"max":[0.5099449157714844,0.40625],"min":[0.004446874838322401,0],"type":"VEC2"},{"bufferView":7,"componentType":5123,"count":288,"max":[215],"min":[0],"type":"SCALAR"}],"materials":[{"pbrMetallicRoughness":{"metallicFactor":0,"roughnessFactor":1,"baseColorTexture":{"index":0}},"alphaMode":"MASK","alphaCutoff":0.05,"doubleSided":true},{"pbrMetallicRoughness":{"metallicFactor":0,"roughnessFactor":1,"baseColorTexture":{"index":1}},"alphaMode":"MASK","alphaCutoff":0.05,"doubleSided":true}],"textures":[{"sampler":0,"source":0,"name":"texture"},{"sampler":1,"source":1,"name":"texture"}],"samplers":[{"magFilter":9728,"minFilter":9728,"wrapS":33071,"wrapT":33071},{"magFilter":9728,"minFilter":9728,"wrapS":33071,"wrapT":33071}],"images":[{"mimeType":"image/png","uri":"data:image/png;base64,"},{"mimeType":"image/png","uri":"data:image/png;base64,"}],"meshes":[{"primitives":[{"mode":4,"attributes":{"POSITION":0,"NORMAL":1,"TEXCOORD_0":2},"indices":3,"material":0}]},{"primitives":[{"mode":4,"attributes":{"POSITION":4,"NORMAL":5,"TEXCOORD_0":6},"indices":7,"material":1}]}]}