{"accessors" : [{"bufferView" : 0, "byteOffset" : 0, "componentType" : 5123, "count" : 2970, "type" : "SCALAR", "max" : [2969], "min" : [0]}, {"bufferView" : 1, "byteOffset" : 0, "componentType" : 5126, "count" : 2970, "type" : "VEC3", "max" : [1.7888749837875366, 10.872909545898438, 8.164609909057617], "min" : [-1.7888749837875366, -1.9999999949504854E-06, -5.523221015930176], "name" : "POSITION"}, {"bufferView" : 1, "byteOffset" : 12, "componentType" : 5126, "count" : 2970, "type" : "VEC3", "max" : [0.9999653697013855, 0.9911922812461853, 0.9862426519393921], "min" : [-0.9999653697013855, -1.0000044107437134, -0.9665100574493408], "name" : "NORMAL"}, {"bufferView" : 1, "byteOffset" : 24, "componentType" : 5126, "count" : 2970, "type" : "VEC2", "max" : [0.9884819984436035, 0.9777299761772156], "min" : [0.013458999805152416, 0.007652999833226204], "name" : "TEXCOORD_0"}], "asset" : {"generator" : "Aspose.3D 23.2", "version" : "2.0"}, "buffers" : [{"uri" : "data:application/octet-stream;base64,", "byteLength" : 100988}], "bufferViews" : [{"buffer" : 0, "byteOffset" : 0, "byteLength" : 5940, "target" : 34963}, {"buffer" : 0, "byteOffset" : 5944, "byteLength" : 95040, "byteStride" : 32, "target" : 34962}], "images" : [{"uri" : "data:image/png;base64,"}], "materials" : [{"name" : "Donkey_mat", "pbrMetallicRoughness" : {"baseColorFactor" : [1, 1, 1, 1], "baseColorTexture" : {"index" : 0, "texCoord" : 0}, "metallicFactor" : 0, "roughnessFactor" : 1}, "emissiveFactor" : [0, 0, 0], "alphaMode" : "OPAQUE", "doubleSided" : false}], "meshes" : [{"primitives" : [{"attributes" : {"POSITION" : 1, "NORMAL" : 2, "TEXCOORD_0" : 3}, "indices" : 0, "material" : 0, "mode" : 4}]}], "nodes" : [{"mesh" : 0, "name" : "Donkey_mesh"}], "samplers" : [{"magFilter" : 9729, "minFilter" : 9986, "wrapS" : 10497, "wrapT" : 10497}], "scene" : 0, "scenes" : [{"nodes" : [0]}], "textures" : [{"sampler" : 0, "source" : 0, "name" : ""}]}