{"asset":{"version":"2.0","generator":"Blockbench 4.7.2 glTF exporter"},"scenes":[{"nodes":[4],"name":"blockbench_export"}],"scene":0,"nodes":[{"name":"GunBase","mesh":0},{"name":"GunTop","mesh":1},{"name":"Barrel","mesh":2},{"name":"cube","mesh":3},{"children":[0,1,2,3]}],"bufferViews":[{"buffer":0,"byteOffset":0,"byteLength":1872,"target":34962,"byteStride":12},{"buffer":0,"byteOffset":1872,"byteLength":1872,"target":34962,"byteStride":12},{"buffer":0,"byteOffset":3744,"byteLength":1248,"target":34962,"byteStride":8},{"buffer":0,"byteOffset":4992,"byteLength":456,"target":34963},{"buffer":0,"byteOffset":5448,"byteLength":3360,"target":34962,"byteStride":12},{"buffer":0,"byteOffset":8808,"byteLength":3360,"target":34962,"byteStride":12},{"buffer":0,"byteOffset":12168,"byteLength":2240,"target":34962,"byteStride":8},{"buffer":0,"byteOffset":14408,"byteLength":840,"target":34963},{"buffer":0,"byteOffset":15248,"byteLength":1440,"target":34962,"byteStride":12},{"buffer":0,"byteOffset":16688,"byteLength":1440,"target":34962,"byteStride":12},{"buffer":0,"byteOffset":18128,"byteLength":960,"target":34962,"byteStride":8},{"buffer":0,"byteOffset":19088,"byteLength":288,"target":34963},{"buffer":0,"byteOffset":19376,"byteLength":672,"target":34962,"byteStride":12},{"buffer":0,"byteOffset":20048,"byteLength":672,"target":34962,"byteStride":12},{"buffer":0,"byteOffset":20720,"byteLength":448,"target":34962,"byteStride":8},{"buffer":0,"byteOffset":21168,"byteLength":168,"target":34963}],"buffers":[{"byteLength":21336,"uri":"data:application/octet-stream;base64,"}],"accessors":[{"bufferView":0,"componentType":5126,"count":156,"max":[0.20416666567325592,0.02083333395421505,0.0416666679084301],"min":[-0.1666666716337204,-0.1666666716337204,-0.0416666679084301],"type":"VEC3"},{"bufferView":1,"componentType":5126,"count":156,"max":[1,1,1],"min":[-0.9459459185600281,-1,-1],"type":"VEC3"},{"bufferView":2,"componentType":5126,"count":156,"max":[1.03125,1.0078125],"min":[0,0.0625],"type":"VEC2"},{"bufferView":3,"componentType":5123,"count":228,"max":[155],"min":[0],"type":"SCALAR"},{"bufferView":4,"componentType":5126,"count":280,"max":[0.17916667461395264,0.11250000447034836,0.0416666679084301],"min":[-0.2083333283662796,0.02083333395421505,-0.0416666679084301],"type":"VEC3"},{"bufferView":5,"componentType":5126,"count":280,"max":[1,1,1],"min":[-1,-1,-1],"type":"VEC3"},{"bufferView":6,"componentType":5126,"count":280,"max":[0.703125,1],"min":[0,0],"type":"VEC2"},{"bufferView":7,"componentType":5123,"count":420,"max":[279],"min":[0],"type":"SCALAR"},{"bufferView":8,"componentType":5126,"count":120,"max":[-0.0625,0.0833333358168602,0.02083333395421505],"min":[-0.2291666716337204,0.0416666679084301,-0.02083333395421505],"type":"VEC3"},{"bufferView":9,"componentType":5126,"count":120,"max":[1,1,1],"min":[-1,-1,-1],"type":"VEC3"},{"bufferView":10,"componentType":5126,"count":120,"max":[0.5176382064819336,0.5176382064819336],"min":[0,0],"type":"VEC2"},{"bufferView":11,"componentType":5123,"count":144,"max":[119],"min":[0],"type":"SCALAR"},{"bufferView":12,"componentType":5126,"count":56,"max":[0.08948995918035507,0.02500000037252903,0.008333333767950535],"min":[-0.02916666679084301,-0.06522361934185028,-0.008333333767950535],"type":"VEC3"},{"bufferView":13,"componentType":5126,"count":56,"max":[1,1,1],"min":[-0.9495417475700378,-1,-1],"type":"VEC3"},{"bufferView":14,"componentType":5126,"count":56,"max":[0.07500000298023224,0.07501685619354248],"min":[0,0],"type":"VEC2"},{"bufferView":15,"componentType":5123,"count":84,"max":[55],"min":[0],"type":"SCALAR"}],"materials":[{"pbrMetallicRoughness":{"metallicFactor":0,"roughnessFactor":1,"baseColorTexture":{"index":0}},"alphaMode":"MASK","alphaCutoff":0.05,"doubleSided":true}],"textures":[{"sampler":0,"source":0,"name":"Gun_Gun.png"}],"samplers":[{"magFilter":9728,"minFilter":9728,"wrapS":33071,"wrapT":33071}],"images":[{"mimeType":"image/png","uri":"file:///D:/godot%20projects/HornyDonkey/textures/objects/gun%20stuff/Gun_Gun.png?4"}],"meshes":[{"primitives":[{"mode":4,"attributes":{"POSITION":0,"NORMAL":1,"TEXCOORD_0":2},"indices":3,"material":0}]},{"primitives":[{"mode":4,"attributes":{"POSITION":4,"NORMAL":5,"TEXCOORD_0":6},"indices":7,"material":0}]},{"primitives":[{"mode":4,"attributes":{"POSITION":8,"NORMAL":9,"TEXCOORD_0":10},"indices":11,"material":0}]},{"primitives":[{"mode":4,"attributes":{"POSITION":12,"NORMAL":13,"TEXCOORD_0":14},"indices":15,"material":0}]}]}