{"asset":{"version":"2.0","generator":"Blockbench 4.7.2 glTF exporter"},"scenes":[{"nodes":[3],"name":"blockbench_export"}],"scene":0,"nodes":[{"name":"cylinder","mesh":0},{"name":"cylinder","mesh":1},{"name":"cylinder","mesh":2},{"children":[0,1,2]}],"bufferViews":[{"buffer":0,"byteOffset":0,"byteLength":1440,"target":34962,"byteStride":12},{"buffer":0,"byteOffset":1440,"byteLength":1440,"target":34962,"byteStride":12},{"buffer":0,"byteOffset":2880,"byteLength":960,"target":34962,"byteStride":8},{"buffer":0,"byteOffset":3840,"byteLength":288,"target":34963},{"buffer":0,"byteOffset":4128,"byteLength":1440,"target":34962,"byteStride":12},{"buffer":0,"byteOffset":5568,"byteLength":1440,"target":34962,"byteStride":12},{"buffer":0,"byteOffset":7008,"byteLength":960,"target":34962,"byteStride":8},{"buffer":0,"byteOffset":7968,"byteLength":288,"target":34963},{"buffer":0,"byteOffset":8256,"byteLength":3744,"target":34962,"byteStride":12},{"buffer":0,"byteOffset":12000,"byteLength":3744,"target":34962,"byteStride":12},{"buffer":0,"byteOffset":15744,"byteLength":2496,"target":34962,"byteStride":8},{"buffer":0,"byteOffset":18240,"byteLength":864,"target":34963}],"buffers":[{"byteLength":19104,"uri":"data:application/octet-stream;base64,"}],"accessors":[{"bufferView":0,"componentType":5126,"count":120,"max":[0.5,0.9375,0.5],"min":[-0.5,0.8125,-0.5],"type":"VEC3"},{"bufferView":1,"componentType":5126,"count":120,"max":[1,1,1],"min":[-1,-1,-1],"type":"VEC3"},{"bufferView":2,"componentType":5126,"count":120,"max":[1,0.9079564213752747],"min":[0,0],"type":"VEC2"},{"bufferView":3,"componentType":5123,"count":144,"max":[119],"min":[0],"type":"SCALAR"},{"bufferView":4,"componentType":5126,"count":120,"max":[0.3125,0.125,0.3125],"min":[-0.3125,0,-0.3125],"type":"VEC3"},{"bufferView":5,"componentType":5126,"count":120,"max":[1,1,1],"min":[-1,-1,-1],"type":"VEC3"},{"bufferView":6,"componentType":5126,"count":120,"max":[1,0.9079564213752747],"min":[0,0],"type":"VEC2"},{"bufferView":7,"componentType":5123,"count":144,"max":[119],"min":[0],"type":"SCALAR"},{"bufferView":8,"componentType":5126,"count":312,"max":[0.25,0.8125,0.25],"min":[-0.25,0.125,-0.25],"type":"VEC3"},{"bufferView":9,"componentType":5126,"count":312,"max":[1,1,1],"min":[-1,-1,-1],"type":"VEC3"},{"bufferView":10,"componentType":5126,"count":312,"max":[1.0044875144958496,1],"min":[0,0],"type":"VEC2"},{"bufferView":11,"componentType":5123,"count":432,"max":[311],"min":[0],"type":"SCALAR"}],"materials":[{"pbrMetallicRoughness":{"metallicFactor":0,"roughnessFactor":1,"baseColorTexture":{"index":0}},"alphaMode":"MASK","alphaCutoff":0.05,"doubleSided":true}],"textures":[{"sampler":0,"source":0,"name":"Wood.png"}],"samplers":[{"magFilter":9728,"minFilter":9728,"wrapS":33071,"wrapT":33071}],"images":[{"mimeType":"image/png","uri":"file:///D:/godot%20projects/HornyDonkey/textures/objects/Wood.png?4"}],"meshes":[{"primitives":[{"mode":4,"attributes":{"POSITION":0,"NORMAL":1,"TEXCOORD_0":2},"indices":3,"material":0}]},{"primitives":[{"mode":4,"attributes":{"POSITION":4,"NORMAL":5,"TEXCOORD_0":6},"indices":7,"material":0}]},{"primitives":[{"mode":4,"attributes":{"POSITION":8,"NORMAL":9,"TEXCOORD_0":10},"indices":11,"material":0}]}]}