{"asset":{"version":"2.0","generator":"Blockbench 4.7.4 glTF exporter"},"scenes":[{"nodes":[2],"name":"blockbench_export"}],"scene":0,"nodes":[{"name":"Pump","mesh":0},{"name":"cuboid","mesh":1},{"children":[0,1]}],"bufferViews":[{"buffer":0,"byteOffset":0,"byteLength":2016,"target":34962,"byteStride":12},{"buffer":0,"byteOffset":2016,"byteLength":2016,"target":34962,"byteStride":12},{"buffer":0,"byteOffset":4032,"byteLength":1344,"target":34962,"byteStride":8},{"buffer":0,"byteOffset":5376,"byteLength":480,"target":34963},{"buffer":0,"byteOffset":5856,"byteLength":11784,"target":34962,"byteStride":12},{"buffer":0,"byteOffset":17640,"byteLength":11784,"target":34962,"byteStride":12},{"buffer":0,"byteOffset":29424,"byteLength":7856,"target":34962,"byteStride":8},{"buffer":0,"byteOffset":37280,"byteLength":2928,"target":34963}],"buffers":[{"byteLength":40208,"uri":"data:application/octet-stream;base64,"}],"accessors":[{"bufferView":0,"componentType":5126,"count":168,"max":[0.015625,0.04062499850988388,-0.15625],"min":[-0.015625,0.00937500037252903,-0.3687500059604645],"type":"VEC3"},{"bufferView":1,"componentType":5126,"count":168,"max":[1,1,1],"min":[-1,-1,-1],"type":"VEC3"},{"bufferView":2,"componentType":5126,"count":168,"max":[1,0.453125],"min":[0,0],"type":"VEC2"},{"bufferView":3,"componentType":5123,"count":240,"max":[167],"min":[0],"type":"SCALAR"},{"bufferView":4,"componentType":5126,"count":982,"max":[0.03125,0.078125,0.5625],"min":[-0.03125,-0.125,-0.515625],"type":"VEC3"},{"bufferView":5,"componentType":5126,"count":982,"max":[1,1,1],"min":[-1,-1,-1],"type":"VEC3"},{"bufferView":6,"componentType":5126,"count":982,"max":[1,1],"min":[0,0],"type":"VEC2"},{"bufferView":7,"componentType":5123,"count":1464,"max":[981],"min":[0],"type":"SCALAR"}],"materials":[{"pbrMetallicRoughness":{"metallicFactor":0,"roughnessFactor":1,"baseColorTexture":{"index":0}},"alphaMode":"MASK","alphaCutoff":0.05,"doubleSided":true}],"textures":[{"sampler":0,"source":0,"name":"ShotGun.png"}],"samplers":[{"magFilter":9728,"minFilter":9728,"wrapS":33071,"wrapT":33071}],"images":[{"mimeType":"image/png","uri":"file:///D:/godot%20projects/HornyDonkey/textures/objects/items/ShotGun.png?18"}],"meshes":[{"primitives":[{"mode":4,"attributes":{"POSITION":0,"NORMAL":1,"TEXCOORD_0":2},"indices":3,"material":0}]},{"primitives":[{"mode":4,"attributes":{"POSITION":4,"NORMAL":5,"TEXCOORD_0":6},"indices":7,"material":0}]}]}